<svg width="24" height="24" viewBox="0 0 24 24" fill="none" xmlns="http://www.w3.org/2000/svg">
  <path d="M15.9 12C15.9 14.1 14.1 15.9 12 15.9C9.9 15.9 8.1 14.1 8.1 12C8.1 9.9 9.9 8.1 12 8.1C14.1 8.1 15.9 9.9 15.9 12Z" fill="white"/>
  <path d="M16.5 6.5C17.2 6.5 17.7 7.1 17.7 7.7C17.7 8.4 17.1 8.9 16.5 8.9C15.8 8.9 15.3 8.3 15.3 7.7C15.3 7 15.9 6.5 16.5 6.5Z" fill="white"/>
  <path d="M14.3 5.7C14.9 4.8 16.1 4.6 17 5.2C17.9 5.8 18.1 7 17.5 7.9L12.7 15.8C12.1 16.7 10.9 16.9 10 16.3C9.1 15.7 8.9 14.5 9.5 13.6L14.3 5.7Z" fill="white"/>
  <path d="M13.5 3C18.2 3 22 6.8 22 11.5C22 16.2 18.2 20 13.5 20H10.5C5.8 20 2 16.2 2 11.5C2 6.8 5.8 3 10.5 3H13.5ZM13.5 5H10.5C6.9 5 4 7.9 4 11.5C4 15.1 6.9 18 10.5 18H13.5C17.1 18 20 15.1 20 11.5C20 7.9 17.1 5 13.5 5Z" fill="white"/>
</svg>