<svg xmlns="http://www.w3.org/2000/svg" width="24" height="24" viewBox="0 0 24 24">
  <g transform="scale(0.77419355) translate(12.832,7.5)">
    <path fill="#FFFFFF" d="m 3.6593273,23.433962 -3.8280231,0 0,-19.1283644 -5.7489348,0 c -1.7052616,0 -3.1018693,1.3909866 -3.1018693,3.1003363 0,1.7062841 1.3966077,3.0972701 3.1018693,3.0972701 l 0,3.829556 c -3.8208695,0 -6.9314264,-3.106468 -6.9314264,-6.926315 0,-3.8218914 3.1105569,-6.929382 6.9309154,-6.929382 l 5.7489344,0 0,-1.9377741 c 0,-3.1785215 2.5872752,-5.766309 5.7698853,-5.766309 3.1754559,0 5.7596659,2.5877875 5.7596659,5.766309 0,3.1785219 -2.58421,5.7663087 -5.7596659,5.7663087 l -1.9418622,0 0,19.1283644 z m 0,-22.956899 1.9418613,0 c 1.069047,0 1.9341975,-0.8687278 1.9341975,-1.9377741 0,-1.0690457 -0.8651505,-1.9377736 -1.9341975,-1.9377736 -1.0721116,0 -1.9418613,0.8687279 -1.9418613,1.9377736 l 0,1.9377741 z"/>
  </g>
</svg>
